<svg id="OBJECTS" xmlns="http://www.w3.org/2000/svg" xmlns:xlink="http://www.w3.org/1999/xlink" viewBox="0 0 324.48 923.33"><defs><style>.cls-1{fill:none;}.cls-2{fill:#ffd500;}.cls-3{clip-path:url(#clip-path);}.cls-4{fill:#0d4a70;}.cls-5{fill:#0e2b4f;opacity:0.57;}.cls-6{fill:#f4cba8;}.cls-7{fill:#af6751;opacity:0.44;}.cls-8{fill:#1c7399;}.cls-9{fill:#1e6284;}.cls-10{fill:#7f3943;}.cls-11{fill:#421607;opacity:0.49;}.cls-12{fill:#7ccce8;}.cls-13{fill:#399abc;}.cls-14{fill:#033e5b;}.cls-15{fill:#f9d775;}.cls-16{fill:#d89c30;}.cls-17,.cls-21{fill:#fff;}.cls-17{opacity:0.13;}.cls-18{fill:#ed4c63;}.cls-19{fill:#962a3d;}.cls-20{fill:#e8778d;}</style><clipPath id="clip-path" transform="translate(-88.03 -73.56)"><circle class="cls-1" cx="249.73" cy="236.7" r="162.24"/></clipPath></defs><title>luma</title><circle class="cls-2" cx="162.24" cy="162.24" r="162.24"/><g class="cls-3"><polygon class="cls-4" points="228.33 905.85 223.42 905.93 223.12 904.65 219.49 887.98 227.84 881.65 227.9 884.67 228.33 905.85"/><path class="cls-5" d="M316.36,979.41l-4.91.09-.3-1.28c.87-.14,2.47-.5,3-1.69.64-1.62-.64-14.63-.64-14.63a13.33,13.33,0,0,1,2.47-3.66Z" transform="translate(-88.03 -73.56)"/><path class="cls-6" d="M301.64,970c-9.33,2.28-18.3,8.1-18.3,8.1a85,85,0,0,1-5,8.06,3.7,3.7,0,0,1-2.07.7,17.75,17.75,0,0,1-7.92-6.11c-4.59-6.13-4.88-10.79-4.88-10.79s.47-.26,1.28-.74a.13.13,0,0,1,.07,0A47.2,47.2,0,0,0,277,958.42c6-7.7,3.74-19,3.74-19-2.13-9.56-7.4-32.28-13.46-56.54-4.19-16.8-8.78-34.3-12.93-48.6-3.5-12.08-6.71-21.89-9.17-27.16-7.77-16.57-18.67-52.94-25.08-76.77-1.52-5.66-2.76-10.59-3.68-14.38,0,0,30.49-19.42,47.42-23.06,5.21-1.1,9.16-.71,10.49,2.25a20.31,20.31,0,0,1,.93,2.92c4.33,18.4,1.8,85.54,3.11,90.39,4.41,16.36,20.72,28.8,21.59,60.45.46,16.81,3.63,80.62,4,82.81a25.58,25.58,0,0,0,2.39,5.61,0,0,0,0,0,0,0,67.11,67.11,0,0,0,6.2,9.78,11,11,0,0,0,.77,1,12.47,12.47,0,0,1,2.82,5.65v.06C318.75,963.82,310,968,301.64,970Z" transform="translate(-88.03 -73.56)"/><path class="cls-4" d="M301.64,970c-9.33,2.28-18.3,8.1-18.3,8.1s-2.57,4.65-4.4,7.25c-.19.29-.42.58-.6.81a3.7,3.7,0,0,1-2.07.7l-.49.08a23.58,23.58,0,0,1-2.87.17,187,187,0,0,1-21.35-1.27c-1.65-.22-2.11-.54-1-2.42.73-1.16,2.09-2.94,4.17-5.65a29.37,29.37,0,0,1,8.74-7.93c.32-.2.57-.31.78-.42l.47-.2a.13.13,0,0,1,.07,0c.12-.06.25-.08.28-.11a1.93,1.93,0,0,0-.48.66c-.41.75-.49,1.94,1.8,3,.28.09.56.21.9.33a8.06,8.06,0,0,0,1.43.31,5.11,5.11,0,0,0,1.18,0c3.21-.57,5.87-4.58,14.45-9.13,10.58-5.58,10.5-1.66,19.2-8.42a5.67,5.67,0,0,0,.53-.4l0,0c6.19-4.93,7.92-7.2,8.4-8.19a1.43,1.43,0,0,0,.16-.58v-.05a32.18,32.18,0,0,1,2.28,4.09,18.12,18.12,0,0,1,1.14,3.19v.06C318.75,963.82,310,968,301.64,970Z" transform="translate(-88.03 -73.56)"/><path class="cls-5" d="M301.64,970c-9.33,2.28-18.3,8.1-18.3,8.1s-2.57,4.65-4.4,7.25c-2.06.62-4.09,1.2-6,1.76a187,187,0,0,1-21.35-1.27c-1.65-.22-2.11-.54-1-2.42a8.59,8.59,0,0,0,.84.21c1.89.37,6.07-3,13-9.24.76-.66,1.39-1.23,2-1.66.28.09.56.21.9.33a8.06,8.06,0,0,0,1.43.31,5.11,5.11,0,0,0,1.18,0c-.43,2.24-1.14,7.35,1.73,6.68,3.65-.83,28.2-12.49,33-16.68,4.21-3.65,2.92-4.62-.56-8l0,0c6.19-4.93,7.92-7.2,8.4-8.19a1.43,1.43,0,0,0,.16-.58v-.05a32.18,32.18,0,0,1,2.28,4.09,18.12,18.12,0,0,1,1.14,3.19v.06C318.75,963.82,310,968,301.64,970Z" transform="translate(-88.03 -73.56)"/><path class="cls-7" d="M306.31,937.36c-7.52-6.06-27.18-32.2-39.05-54.46-4.19-16.81-8.78-34.3-12.93-48.61-.6-9.65-.88-18.34-3.54-26.84-5.16-16.42-9.07-65.08-9-68.19,0-2.62-9.11-7.53-21.67-8.88-1.52-5.66-2.76-10.6-3.68-14.4,0,0,30.49-19.42,47.42-23,3.84,1.52,7.68,3.26,11.42,5.15,4.33,18.41,1.8,85.54,3.11,90.39,4.41,16.38,20.72,28.8,21.59,60.45.46,16.83,3.63,80.64,4,82.83A25.57,25.57,0,0,0,306.31,937.36Z" transform="translate(-88.03 -73.56)"/><path class="cls-6" d="M315.51,864c-2.41,16.61-10.08,79.85-10.11,82,0,1.4,1.21,5.72,3,10.22v.08a61.24,61.24,0,0,0,3.43,7.23v.06c2.62,9.94-6.11,14.09-14.5,16.14C288,982,279,987.84,279,987.84a83.63,83.63,0,0,1-5,8.06,4.55,4.55,0,0,1-2.56.78c-2.94-.79-6.8-3.33-9.42-8.4a26.61,26.61,0,0,1-2.85-8.69c-.09-.53.41,2.52.39,2.14-.05-.9,1.2-2.91,1.2-2.91a167.26,167.26,0,0,0,13.57-11.07c7.2-6.51,6.9-18,6.9-18-1.08-22.12-6.69-114.14-12.69-135.87-4.41-16-8.63-48.5-11.06-72.69-.89-8.65-1.55-16.27-1.89-21.63,0,0,57.17-24.08,60.6-10.86s-12.28,87-11.78,92.31C306,817.83,320,832.74,315.51,864Z" transform="translate(-88.03 -73.56)"/><path class="cls-7" d="M315.51,864c-2.41,16.61-10.08,79.85-10.11,82,0,1.4,1.21,5.72,3,10.22v.08a61.24,61.24,0,0,0,3.43,7.23v.06c2.62,9.94-6.11,14.09-14.5,16.14C288,982,279,987.84,279,987.84a83.63,83.63,0,0,1-5,8.06,4.55,4.55,0,0,1-2.56.78c-2.94-.79-6.8-3.33-9.42-8.4a26.61,26.61,0,0,1-2.85-8.69c-.09-.53.69,1.2.66.82.31.33-.19-1.58.12-1.25l.34.32a44.26,44.26,0,0,0,4.13,3.63c5.08,3.84,11.18,6.09,16.84,1.1,12.73-11.25,14.5,2.29,17.14-13.09.4-2.27.67-4.1.84-5.61,1.13-8.82-.78-7.65-3.65-23.13-3.36-18.19,14.18-65.27,4.4-91.41s-11.13-18.77-11.3-41.28.76-65,.76-65-12.66,2.68-32-3.51c-.89-8.65-1.55-16.27-1.89-21.63,0,0,57.17-24.08,60.6-10.86s-12.28,87-11.78,92.31C306,817.83,320,832.74,315.51,864Z" transform="translate(-88.03 -73.56)"/><path class="cls-8" d="M284.09,328.59c3.48-7,.45-16.44-8.1-17.15s-40.5,5.86-44.26,10.71-7.07,32.67-3.48,35.78,29.14-7.46,38.81-12.43S284.09,328.59,284.09,328.59Z" transform="translate(-88.03 -73.56)"/><path class="cls-4" d="M317.9,718.44s-2.89,6.25-29.52,11.63-66.17-7-70.33-10.8c-1.47-1.35-3.75-5.6-6.28-11.94-4.49-11.2-9.81-29-13.26-49.22-3.85-22.46-12.71-68.23-16.35-95.38-1.5-11.08-2.09-19.05-1.13-21.11,0,0,26.62,5,45.36,6.24s57.41-10.4,57.41-10.4,27.36,23.61,39.15,63.25C332.43,632.6,317.9,718.44,317.9,718.44Z" transform="translate(-88.03 -73.56)"/><path class="cls-5" d="M317.9,718.44s-2.89,6.25-29.52,11.63-66.17-7-70.33-10.8c-1.47-1.35-3.75-5.6-6.28-11.94,18,6.77,46.3,14.31,50.82-3.2,6.68-26-1.88-69.69-1.88-69.69s-18.59,4.38-32.13,0c-13.14-4.24-25.82-26.8-26.62-28.22.92.74,20.4,16.81,38.56,6.16,18.62-10.9,18-41.22,18-41.22s-43,15.21-76.37-8.43c-1.5-11.08-2.09-19.05-1.13-21.11,0,0,26.62,5,45.36,6.24s57.41-10.4,57.41-10.4,27.36,23.61,39.15,63.25C332.43,632.6,317.9,718.44,317.9,718.44Z" transform="translate(-88.03 -73.56)"/><path class="cls-9" d="M216.39,377.9c-.61,10-5.6,48.7-15,64q-1.43,2.31-3,5.17c-9.33,16.87-22.32,45.71-33.55,51.31q-18.71,9.38-27.15,6.56c-5.6-1.88-13.08-10.62-14.34-14.65s-2.19-30.6,4.06-37.15,54.3-80.18,60.54-90.19c1.05-1.69,2.1-3.2,3.08-4.52,4.89-6.46,9.27-8.53,14.68-6.71C205.77,351.68,217,367.93,216.39,377.9Z" transform="translate(-88.03 -73.56)"/><path class="cls-5" d="M216.39,377.9c-.61,10-5.6,48.7-15,64q-1.43,2.31-3,5.17c-6.31,6.31-12.07,11.85-15.92,16.25-14.31,16.35-47.79,5.17-47.79,5.17-3.21-2.89-4.93-10.12,0-14.49s19.48-23.39,23.73-33.8,19.26-35.27,26.19-45.21c3.26-4.71,5.23-11.11,6.43-16.56,4.89-6.46,9.27-8.53,14.68-6.71C205.77,351.68,217,367.93,216.39,377.9Z" transform="translate(-88.03 -73.56)"/><path class="cls-6" d="M170.28,447.89v0a9.8,9.8,0,0,1-1.32,1.75c-3.42,3.72-16.84,10.93-25.88,11.23s-7.51-2.18-12.81-7.51c-5.17-5.17-8.86-7.66-8.15-15,0-.18,0-.37.06-.55.92-7.82,9.66-17.79,19.94-24.35s7.82-2.49,14.07,4.07a89.3,89.3,0,0,1,7.66,9.82c.62.86,1.23,1.72,1.82,2.58,0,0,0,0,0,.06,1.69,3.6,2.89,9.79,4.46,17.39A4.15,4.15,0,0,0,170.28,447.89Z" transform="translate(-88.03 -73.56)"/><path class="cls-7" d="M170.28,447.89v0a9.8,9.8,0,0,1-1.32,1.75c-3.42,3.72-16.84,10.93-25.88,11.23s-7.51-2.18-12.81-7.51c-5.17-5.17-8.86-7.66-8.15-15,1.69,3.14,4.12,6.41,7.29,7.67,6.83,2.71,18.53-6.93,27.09-16,3.32-3.54,5.6-4.21,7.35-2.67a7,7,0,0,1,1.82,2.58s0,0,0,.06c1.69,3.6,2.89,9.79,4.46,17.39A4.15,4.15,0,0,0,170.28,447.89Z" transform="translate(-88.03 -73.56)"/><path class="cls-4" d="M322.49,377.9s-6.84,10.22-15.27,24.38c-12.37,20.75-28.26,50-31.21,68-5,30.26,6.86,56.79,6.86,56.79s-4.95,6.92-22.59,11.32c-2.15.53-4.52,1-7.08,1.48-23.39,4-58,.93-67.68-2.18s-8.88-3.5-9.8-8.49,2.29-15.86-.2-27.71-3.11-11.88-5.6-20.28c-1.33-4.5-.28-9.82.46-15.24.61-4.74,1-9.6-.8-14.09a77.65,77.65,0,0,1-5-37.15,32.7,32.7,0,0,1,3.72-11.05c.1-.25.19-.44.22-.53a.37.37,0,0,1,.06-.09c8-15.6,25.24-34.84,29.4-42.94,0,0,5-4.06,8.74-4.37s92.36-13.11,104.21-1.23S322.49,377.9,322.49,377.9Z" transform="translate(-88.03 -73.56)"/><path class="cls-5" d="M282.87,527.06s-4.95,6.92-22.59,11.32c-22,1.91-47.18-4.34-47.18-4.34s6.12-6.18,8.77-20.89-12.59-43-30.72-44.7c-8.4-.8-15.33-1.07-20.77-2.49.61-4.74,1-9.6-.8-14.09a77.65,77.65,0,0,1-5-37.15,32.7,32.7,0,0,1,3.72-11.05,12.44,12.44,0,0,0,.28,8.09c6.53,18.53,18.9,20.71,29.09,16.56s26.53-6.49,37.3-3.42,16.93-.52,23.55-9.54,4.06-19.88,4.06-19.88,10.62-7.54,21.08-7.63c5.08,0,15.61,5,23.55,14.43-12.37,20.75-28.26,50-31.21,68C271,500.53,282.87,527.06,282.87,527.06Z" transform="translate(-88.03 -73.56)"/><path class="cls-8" d="M194.55,415.35s-2.49-16.54-1.56-45.56,3.75-27.46,8.74-29.33,30.27-8.11,31.52-8.11-4.68,12.79-11.24,33.07S194.55,415.35,194.55,415.35Z" transform="translate(-88.03 -73.56)"/><path class="cls-10" d="M178,242.79c2.8,19.66-10.3,56.48-9.37,63s15.92,9.67,24.66,11.54,10-1.25,10-1.25l3.43-10s0,11.54,3.44,12.79,22.77-2.5,33.07-5.3,9.05-13.11-8.74-34.64S178,242.79,178,242.79Z" transform="translate(-88.03 -73.56)"/><path class="cls-11" d="M183.85,256.94c-6.19,28.64-.77,29.8,4.65,35.22s-6.58,16.12,0,19.28,13.91,2,16.05-3.8,6.39-5.42,6.39-5.42-7.13,6,2.16,10.94,28,7.64,34.61-5.13,1.34-27.87-9-35.61-23.53-13.54-34.16-15.48A63.51,63.51,0,0,0,183.85,256.94Z" transform="translate(-88.03 -73.56)"/><path class="cls-10" d="M335.29,303c-1,5-10,6.55-10,6.55a27.3,27.3,0,0,0,.64-10,56.35,56.35,0,0,0-2.52-11.23s-1.23,16.56-6.22,23.73a50.79,50.79,0,0,1-8.43,2.43,61.53,61.53,0,0,1-21.21,1s.92-12.15-15.91-11.54-71.47-71.13-82.7-82.36-14.16-14.78-14.16-14.78c-7.36,1.67-10.5,2.62-10.5,2.62A53.12,53.12,0,0,1,161.57,197c-1.63-15.09,1.48-40.11,35.15-53.07,50.27-19.36,86.15-2.83,86.15-2.83s-.95-9.36-.95-14,9.36-7.48,12.19.61.61,13.11.61,13.11,4.68-7.48,12.47-6.55,10,5.63,8.43,9.69-13.73,4.68-13.73,4.68,33.4,12.16,38.69,56.48S336.21,298,335.29,303Z" transform="translate(-88.03 -73.56)"/><path class="cls-11" d="M308.76,314.5a61.53,61.53,0,0,1-21.21,1s.92-12.15-15.91-11.54-71.47-71.13-82.7-82.36-14.16-14.78-14.16-14.78c-7.36,1.67-10.5,2.62-10.5,2.62A53.12,53.12,0,0,1,161.57,197c8.71,6.31,13.36,4.34,15.33-1.17,2.31-6.56,2.71-12,9.27-19.33,6.28-7,11.14-10.16,11.6-10.44-.37,1-6.71,16-7.91,21.55-1.23,5.75-1,9.39,7.94,6.28s9.79,3.88,18.62.4,2.49-6.59,8.37-18.59a71.41,71.41,0,0,1,15.15-20c-.53,1.17-9.54,21.11-8.5,26.25s3.82,18.56,24.56,15.49,27.3,8.24,36.23,3.54,0-30.26,0-30.26,23.61,16.65,23.61,69.65C315.84,291,316.14,303.45,308.76,314.5Z" transform="translate(-88.03 -73.56)"/><path class="cls-6" d="M295.65,248.42c4.18,7.82,2.61,27.94,2.24,32a70.06,70.06,0,0,0-8.89,3.91c-13.24,6.46-13.24,20.06-13.24,36.44a39.89,39.89,0,0,0,2,12.83v0c2.53,7.61,6.56,11.3,6.56,11.3s-7,15.64-29.64,21.85-31.18,0-31.18,0l-2.62-6.28-5.17-12.43,17.12-8.59s4.68-21.85,0-37.42A14.23,14.23,0,0,0,230.3,297c-5.35-6.59-15.72-.9-34.47-15.55h0c-1.63-1.26-3.29-2.68-5.05-4.28-16.28-14.8-17.88-42.13-16.86-60.2.21-3.88.55-7.32.89-10.13,2.24-.24,5.38-.52,7.6-.52a5.52,5.52,0,0,0,3.76-1.26l3.72-17.45c-.31,7.48,1.57,19.33,1.57,19.33s5.6-2.8,17.17-3.76,19,2.53,19,2.53l3.44-21.86,10,22.16A57.45,57.45,0,0,0,262.59,210c12.47,0,13.73-6.56,22.75-2.84,8.77,3.64,6.67,18.69,6.58,19.64.16-.09.77-.4,1.63-.77,4.1-1.72,14.35-4.74,15.82,8C311.25,250,295.65,248.42,295.65,248.42Z" transform="translate(-88.03 -73.56)"/><path class="cls-7" d="M303.68,240.29s-1.79-5.78-7.08-4.49-1,12.62-1,12.62c4.18,7.82,2.61,27.94,2.24,32a70.06,70.06,0,0,0-8.89,3.91c-13.24,6.46-13.24,20.06-13.24,36.44a39.89,39.89,0,0,0,2,12.83v0a36.83,36.83,0,0,1-1.6,9.92c-3.66,10.77-13.75,14.37-25.54,18.77s-20.72,3-27,0a4.2,4.2,0,0,1-2.18-2c-1.66-3.66,3.6-9.6,6.06-12.53a83.19,83.19,0,0,0,5.54-8.12c3.2-5.05,6.68-10.87,8.56-13.85,3.17-5,10.09-5,10.09-5s3-17.42-3.2-20.13c-4-1.72-10.58-3.05-18.19-3.72-5.35-6.59-15.72-.9-34.47-15.55a101.28,101.28,0,0,1,10.47,5.27c13.42,7.63,46,8.58,62.32-5.7s8.9-44.54,4.62-53.06-18.56-4.25-27.64-5S233.41,212,233.41,212s-5.82,5-11.54,3.6-21-3.6-24.87-3.6-2.71,4.64-7.73,5c-4.06.31-8.61-2.15-15.38-.15.21-3.88.55-7.32.89-10.13,2.24-.24,5.38-.52,7.6-.52a5.52,5.52,0,0,0,3.76-1.26l3.72-17.45c-.31,7.48,1.57,19.33,1.57,19.33s5.6-2.8,17.17-3.76,19,2.53,19,2.53l3.44-21.86,10,22.16A57.45,57.45,0,0,0,262.59,210c12.47,0,13.73-6.56,22.75-2.84,8.77,3.64,6.67,18.69,6.58,19.64.16-.09.77-.4,1.63-.77a33.63,33.63,0,0,0,7.58,3.39C305.37,230.63,303.68,240.29,303.68,240.29Z" transform="translate(-88.03 -73.56)"/><path class="cls-12" d="M264.13,351.37c-6.55,5-24.34,17.49-34,22.46s-25.59,19-25.59,19S207,371.36,214.2,352c5.17-13.93,10.34-18.61,17-20.13-1.42,3.72-2.21,22.93-3,25.3s.36,2,.36,2,9-18.48,12.32-22.76a15.85,15.85,0,0,1,4.68-4.28C256.56,335.66,269.67,347.19,264.13,351.37Z" transform="translate(-88.03 -73.56)"/><path class="cls-13" d="M228.57,359.18s17.78-5,29.95-1.56a14.46,14.46,0,0,0,2.81-15.91c-4.06-9.36-8.11-10.92-14.35-9.36s-10.3,11.54-12.17,14.35S228.57,359.18,228.57,359.18Z" transform="translate(-88.03 -73.56)"/><path class="cls-12" d="M228.57,359.18c8.11-12.79,14-25.9,18.72-23.71s11.23,22.15,11.23,22.15,24.65-16.22,34.64-23.09-4.68-18.72-7.49-20.28-9.68-2.81-9.68-2.81,7.49,4.06,1.88,8.74-27.46,7.8-33.39,10.3S228.57,359.18,228.57,359.18Z" transform="translate(-88.03 -73.56)"/><path class="cls-13" d="M229.5,339.53,214.21,352s4.06-19,9-22.78S229.5,339.53,229.5,339.53Z" transform="translate(-88.03 -73.56)"/><path class="cls-12" d="M234.18,320.8s-10.3,5.31-14,10S214.21,352,214.21,352s5.93-20,9.36-20.29,4.68,26.21,4.68,26.21l4.59-18.42s1.34-7.16,2.28-12.15S234.18,320.8,234.18,320.8Z" transform="translate(-88.03 -73.56)"/><path class="cls-8" d="M191.43,426.58c-1.56-10.92,3.44-24.34,13.11-33.7S256,356.06,270.69,347s22.15-14.66,23.09-17.47-2.18-6.24-2.18-6.24,7.48,1.56,16.85,13.73,15,15.29,11.23,20.9-64.9,30.9-70.52,33.39-18.41-.93-18.41-.93,4.68,10.29,1.25,12.17-14.36.62-25.28,10S191.43,426.58,191.43,426.58Z" transform="translate(-88.03 -73.56)"/><path class="cls-6" d="M248.22,472.15c-10.59,7.79-16.53,5.29-18.72.61s-4.68-13.11-7.17-15.6-6.86-2.49-6.86-2.49a19.56,19.56,0,0,1-2.5-11.85c.19-2.19.28-4.1.28-5.67a37.77,37.77,0,0,0-.28-5.57s14-1.88,23.7,0c5.58,1.08,12,7.23,16.44,12.25,3.23,3.7,5.42,6.77,5.42,6.77S258.83,464.33,248.22,472.15Z" transform="translate(-88.03 -73.56)"/><path class="cls-7" d="M248.22,472.15c-10.59,7.79-16.53,5.29-18.72.61s-4.68-13.11-7.17-15.6-6.86-2.49-6.86-2.49a19.56,19.56,0,0,1-2.5-11.85c.19-2.19.28-4.1.28-5.67.59-1,1-1.6,1-1.6,14.65,1.05,19.69.74,21.48,4.22s-6.4,11.6-6.5,14.19,6.13,13.82,6.78,14.4,4.24-6.21,9.63-14.4c3.6-5.48,5.63-9.3,7.51-10.13,3.23,3.7,5.42,6.77,5.42,6.77S258.83,464.33,248.22,472.15Z" transform="translate(-88.03 -73.56)"/><path class="cls-9" d="M315.93,421.58c-5.6,12.19-51.49,76.15-55.53,84.27s-7.51,10.9-11.23,11.24-7.2-1.57-14.07-2.19-14.95-4.68-14.95-4.68-36.2-23.11-44.63-27.14-15-9.39-16.84-12.19-1.57-11.24,8.1-20a33.47,33.47,0,0,1,8.43-5.79c4.59-2.06,7.17-1.38,7.17-1.38s-.61,2.49,15.3,10c1.35.65,2.61,1.2,3.75,1.76,11.27,5,14.19,5.08,18,7.11.43.24.89.49,1.35.8a29.84,29.84,0,0,0,13.11,4.06c3.11.31,5,5,5,5s26.53-58.36,29.64-65.84,6.25-17.48,6.25-17.48a3.52,3.52,0,0,0,.24-.28c2.19-2.15,18.29-17.63,32.2-19.39,15-1.88,13.73.65,16.87,12.19S321.56,409.42,315.93,421.58Z" transform="translate(-88.03 -73.56)"/><path class="cls-5" d="M315.93,421.58c-5.6,12.19-51.49,76.15-55.53,84.27s-7.51,10.9-11.23,11.24-7.2-1.57-14.07-2.19-14.95-4.68-14.95-4.68-36.2-23.11-44.63-27.14-15-9.39-16.84-12.19-1.57-11.24,8.1-20a33.47,33.47,0,0,1,8.43-5.79c-1.6,5.73-1.88,12.56,4,15.82,7.7,4.25,15.73-1.5,22.22-5.44,3-1.82,5.6-3.23,7.73-3.11,6.74.37,12.71,8.55,12.71,8.55s-1,.65-2.46,1.67c-3.57,2.49-9.76,7.26-10.25,10.28-.65,4.28-1.69,9.29,6.71,15.88s27.45,13.14,27.45,13.14a36.25,36.25,0,0,1-4.61-10.83c-1.67-6.59.15-18.62.15-18.62s8.86,21.73,15.82,13.2,46.81-82.43,44.51-87.07c-2.1-4.19-7.61-14-24.2-9.73,2.19-2.15,18.29-17.63,32.2-19.39,15-1.88,13.73.65,16.87,12.19S321.56,409.42,315.93,421.58Z" transform="translate(-88.03 -73.56)"/><path class="cls-12" d="M202.35,431.89c-1.56,8.42,4.37,26.52,7.81,29.95l10.29-3.43s1.41-4.46,0-18c-1-10-4.37-12.25-4.37-12.25a23.65,23.65,0,0,0-7.17,1.56C204.54,431.26,202.35,431.89,202.35,431.89Z" transform="translate(-88.03 -73.56)"/><path class="cls-9" d="M215.78,462.79c-1.88,3.42-35.28,30.56-47.43,37.43s-20.29,8.43-28.72,6.55a22.52,22.52,0,0,1-16.22-13.42c-1.54-3.41-1.2-8.34.28-13.29a40.12,40.12,0,0,1,5.6-11.61c6.34-9,14.62-13.32,25.54-18s29.46-12.1,36.32-14.9c5-2.06,10.22-4.4,12.62-5.54l1.39-.61s5.94,3.11,9.05,12.77S217.65,459.34,215.78,462.79Z" transform="translate(-88.03 -73.56)"/><path class="cls-14" d="M172.4,522.05c-6.24,6.65-5.13,18.33-2.21,22.49s34.14,14.14,56.19,12.47,60.33-6.65,63.66-12.9-10.41-20-10.41-20-39.1,14.61-85.28,5C186.62,527.53,172.4,522.05,172.4,522.05Z" transform="translate(-88.03 -73.56)"/><path class="cls-15" d="M189.5,525.42A5.6,5.6,0,0,0,183,530.2c-1.48,10.95-2.79,20.89.76,22.66,4.16,2.08,14.78,4.21,16.44,2.13s2.93-25.92,0-27.17C198.55,527.12,193.56,526.14,189.5,525.42Z" transform="translate(-88.03 -73.56)"/><path class="cls-16" d="M196.09,552a45.21,45.21,0,0,1-9.44-2.17c-.57-4,.74-14,1.63-20.61,4,.73,6.61,1.27,8.29,1.66A116.1,116.1,0,0,1,196.09,552Z" transform="translate(-88.03 -73.56)"/><path class="cls-5" d="M215.78,462.79c-1.88,3.42-35.28,30.56-47.43,37.43s-20.29,8.43-28.72,6.55a22.52,22.52,0,0,1-16.22-13.42c-1.54-3.41-1.2-8.34.28-13.29,7.78,12.65,12.92,10.31,19.69,4.74,8.1-6.62,32.35-11,45.34-17.88S203.16,452,206.6,443c1.79-4.65-.37-9.45-2.83-13l1.39-.61s5.94,3.11,9.05,12.77S217.65,459.34,215.78,462.79Z" transform="translate(-88.03 -73.56)"/><path class="cls-17" d="M212.88,392.87c13.41-8.92,55.26-33.24,67.37-41.82A131,131,0,0,0,299,335.31s6.91,6.58,8.22,11.78-.71,7.15-5.62,12.09S245.88,386.93,239,386.93s-10.62-1.44-12.24,3.76-4.9,3.17-12.5,8.95-16,13.28-16,13.28S204.69,398.32,212.88,392.87Z" transform="translate(-88.03 -73.56)"/><path class="cls-17" d="M201.93,345.5c5.55-2.74,8.43-.72,8.72,0s-3,21.51-6.1,31.33a57.92,57.92,0,0,0-2.62,18.81s-3.4-20-2.25-29.21S201.93,345.5,201.93,345.5Z" transform="translate(-88.03 -73.56)"/><polygon class="cls-4" points="222.47 915.29 215.84 915.38 215.79 914.83 214.48 904.32 214.17 901.73 213.63 897.42 222.01 891.09 222.12 896.93 222.47 915.29"/><path class="cls-5" d="M310.5,988.85l-6.63.1-.05-.55c.9-.2,2.77-.73,2.94-1.89.27-1.54-.65-8.15-.65-8.15a21,21,0,0,1-3.6-.48l-.31-2.59c1.63-1.41,3.74-3.27,5-4.24,1.76-1.38,2.32-1.17,3-.55Z" transform="translate(-88.03 -73.56)"/><path class="cls-4" d="M297.32,979.74C288,982,279,987.84,279,987.84a83.63,83.63,0,0,1-5,8.06,4.55,4.55,0,0,1-2.56.78c-6.32.77-22-.81-24.22-1.1-2.67-.35-2.22-1,3.21-8.07a29.14,29.14,0,0,1,8.74-7.92c.28-.18.53-.29.72-.4l0,0h0c.44-.2.72-.31.81-.34a2.09,2.09,0,0,0-.47.66c-.45.84-.52,2.23,2.7,3.32a8.06,8.06,0,0,0,1.43.31c3.85.36,6-4.06,15.63-9.18,10.57-5.58,10.5-1.66,19.19-8.42a5.32,5.32,0,0,0,.57-.43c8-6.36,8.56-8.33,8.56-8.77v0a25.16,25.16,0,0,1,3.43,7.28v.06C314.44,973.54,305.71,977.69,297.32,979.74Z" transform="translate(-88.03 -73.56)"/><path class="cls-5" d="M297.32,979.74C288,982,279,987.84,279,987.84a83.63,83.63,0,0,1-5,8.06,4.55,4.55,0,0,1-2.56.78c-6.32.77-22-.81-24.22-1.1-2.67-.35-2.22-1,3.21-8.07a29.14,29.14,0,0,1,8.74-7.92c.28-.18.53-.29.72-.4-2.34,3.11-5.41,7.26-4.59,9.19,1.3,3,6.6,5.08,11.35,3.36s5.92-3.8,14.06-10.57,14.93-5.14,17.69-10,.84-5.61.84-5.61a5.32,5.32,0,0,0,.57-.43c8-6.36,8.56-8.33,8.56-8.77v0a25.16,25.16,0,0,1,3.43,7.28v.06C314.44,973.54,305.71,977.69,297.32,979.74Z" transform="translate(-88.03 -73.56)"/><path d="M185.13,247.27H185a3.07,3.07,0,0,1-3-3.18c.16-4.81,2.25-10.74,7.64-13a10.37,10.37,0,0,1,14.21,11.1,3.08,3.08,0,0,1-6.09-.9,4.21,4.21,0,0,0-5.77-4.51c-2.52,1-3.74,4.5-3.84,7.48A3.08,3.08,0,0,1,185.13,247.27Z" transform="translate(-88.03 -73.56)"/><path d="M259.07,246a3.07,3.07,0,0,1-2.8-1.79,21.67,21.67,0,0,0-6-8.21,10,10,0,0,0-8.32-2.16c-2.56.65-4.59,3.05-4.52,5.33a3.07,3.07,0,0,1-3,3.17,3,3,0,0,1-3.17-3c-.16-5.17,3.77-10.11,9.15-11.49a16,16,0,0,1,13.63,3.28,27.48,27.48,0,0,1,7.77,10.49,3.07,3.07,0,0,1-2.79,4.36Z" transform="translate(-88.03 -73.56)"/><path class="cls-18" d="M216.9,261.13a9.85,9.85,0,0,1-7.16-3,8.19,8.19,0,0,1-1.44-9,7.06,7.06,0,0,1,8.59-3.49,1.66,1.66,0,0,1,1,2.13,1.63,1.63,0,0,1-2.13.94,3.81,3.81,0,0,0-4.47,1.9,4.9,4.9,0,0,0,.92,5.33,6.61,6.61,0,0,0,5.65,1.87,1.64,1.64,0,0,1,.42,3.26A9.91,9.91,0,0,1,216.9,261.13Z" transform="translate(-88.03 -73.56)"/><path class="cls-19" d="M241.9,273.21a7.48,7.48,0,0,1,0,1.16c-.66,7.31-2.64,8-8.63,10.63a15.73,15.73,0,0,1-15.41-1.77,14.34,14.34,0,0,1-2.15-1.88,11.68,11.68,0,0,1-3.26-8.07c.1-2.11,1-3.76,2.57-4.22A33.83,33.83,0,0,1,228,268a5.2,5.2,0,0,1,1,.09C233,268.7,241.57,267.25,241.9,273.21Z" transform="translate(-88.03 -73.56)"/><path class="cls-20" d="M241.9,273.21a7.48,7.48,0,0,1,0,1.16c-.66,7.31-2.64,8-8.63,10.63a15.73,15.73,0,0,1-15.41-1.77c1-3.63,3.59-10.58,10.17-15.25a5.2,5.2,0,0,1,1,.09C233,268.7,241.57,267.25,241.9,273.21Z" transform="translate(-88.03 -73.56)"/><path class="cls-21" d="M241.9,273.21c-10.9,1.22-23.88.5-29.45.07.1-2.11,1-3.76,2.57-4.22a34.19,34.19,0,0,1,14-1C233,268.7,241.57,267.25,241.9,273.21Z" transform="translate(-88.03 -73.56)"/><path class="cls-10" d="M228.31,219c.61,1.49,6,.78,12.94.52s11.61,2.86,14.26,1.56-2.65-6.51-10.28-8.34S225.65,212.45,228.31,219Z" transform="translate(-88.03 -73.56)"/><path class="cls-10" d="M201.43,219c.66,3.59-5,5.31-12.27,4s-11.95,3.65-13.6,1,4.64-9.29,11.61-9.29S200.77,215.32,201.43,219Z" transform="translate(-88.03 -73.56)"/></g></svg>